<?xml version="1.0" encoding="UTF-8"?>
<svg xmlns="http://www.w3.org/2000/svg" xmlns:xlink="http://www.w3.org/1999/xlink" version="1.1" width="512" height="512" x="0" y="0" viewBox="0 0 176 176" style="enable-background:new 0 0 512 512" xml:space="preserve" class="">
  <g>
    <g data-name="Layer 2">
      <rect width="176" height="176" fill="#7127ba" rx="24" opacity="1" data-original="#e84135" class=""/>
      <g fill="#fff">
        <path d="M85.71 92.05s-6.13-11.8-5.9-20.44C80 65.45 93.87 59.35 99.33 50.5S98.67 33 98.67 33a20.39 20.39 0 0 1-2.29 13c-3.62 6.57-17 10.45-22.26 21.81s11.59 24.24 11.59 24.24z" fill="#ffffff" opacity="1" data-original="#ffffff" class=""/>
        <path d="M108.67 56.17s-20.91 7.94-20.91 17 5.67 12 6.59 15-1.59 8-1.59 8 8.18-5.7 6.8-12.27-7.72-8.64-4.08-15.23c2.45-4.41 13.19-12.5 13.19-12.5z" fill="#ffffff" opacity="1" data-original="#ffffff" class=""/>
        <path d="M83.45 104.06c19.32-.69 26.34-6.78 26.34-6.78-12.49 3.41-45.66 3.18-45.89.69s10.22-4.56 10.22-4.56-16.35 0-17.7 4.1 7.71 7.24 27.03 6.55zM111.39 113.65s18.9-4 17-14.31C126.16 86.84 113 93.9 113 93.9s9.32 0 10.22 5.67-11.83 14.08-11.83 14.08zM102.08 108.19a88.94 88.94 0 0 1-11.83 2c-9.45 1.06-20.91.23-21.8-1.36s1.55-2.47 1.55-2.47c-11.36 2.75-5.13 7.5 8.17 8.42 11.42.78 28.41-3.41 28.41-3.41zM72.78 118.12s-5.16.14-5.47 2.86 3.19 5.16 15.91 5.9a48.25 48.25 0 0 0 21.64-3.46l-5.73-3.5s-3.65.76-9.25 1.52-17.1-.6-17.56-1.66a1.33 1.33 0 0 1 .46-1.66z" fill="#ffffff" opacity="1" data-original="#ffffff" class=""/>
        <path d="M81.1 137.51c27.24 0 39.23-5 41.19-7.12s-.62-3.79-.62-3.79a1.61 1.61 0 0 1-.28 2.26c-1.22 1.22-12.29 4.25-30 5.14s-36.95-1.66-37.55-3.92 9.84-4.1 9.84-4.1c-1.19.16-15.74.46-16.2 4.41s6.35 7.12 33.62 7.12z" fill="#ffffff" opacity="1" data-original="#ffffff" class=""/>
        <path d="M111.69 139.32c-12 2.41-48.32.88-48.32.88a139.48 139.48 0 0 0 50.6.92c12.88-2.26 13.62-8.48 13.62-8.48s-3.94 4.24-15.9 6.68z" fill="#ffffff" opacity="1" data-original="#ffffff" class=""/>
      </g>
    </g>
  </g>
</svg>
