<?xml version="1.0" encoding="UTF-8"?>
<svg xmlns="http://www.w3.org/2000/svg" xmlns:xlink="http://www.w3.org/1999/xlink" version="1.1" width="512" height="512" x="0" y="0" viewBox="0 0 512 512" style="enable-background:new 0 0 512 512" xml:space="preserve" class="">
  <g>
    <path d="M456.676 512H55.324C24.77 512 0 487.23 0 456.676V55.324C0 24.77 24.77 0 55.324 0h401.35c30.555 0 55.324 24.77 55.324 55.324v401.35C512 487.23 487.23 512 456.676 512z" fill="#7127ba" opacity="1" data-original="#000000" class=""/>
    <g fill="#fff">
      <path d="M253.686 60.322c-16.024.075-31.326 1.441-44.792 3.824-39.665 7.008-46.866 21.676-46.866 48.724v35.724h93.733v11.908H126.85c-27.241 0-51.095 16.374-58.556 47.521-8.606 35.704-8.987 57.983 0 95.264 6.663 27.75 22.576 47.522 49.817 47.522h32.228v-42.825c0-30.938 26.769-58.228 58.556-58.228h93.624c26.062 0 46.867-21.459 46.867-47.632V112.87c0-25.402-21.43-44.484-46.867-48.724-16.102-2.68-32.81-3.897-48.833-3.824m-50.69 28.733c9.683 0 17.588 8.036 17.588 17.916 0 9.845-7.906 17.807-17.588 17.807-9.717 0-17.588-7.962-17.588-17.807-.001-9.881 7.871-17.916 17.588-17.916" fill="#ffffff" opacity="1" data-original="#ffffff" class=""/>
      <path d="M361.077 160.501v41.623c0 32.27-27.359 59.43-58.556 59.43h-93.624c-25.646 0-46.867 21.948-46.867 47.631v89.255c0 25.402 22.089 40.344 46.867 47.631 29.67 8.725 58.123 10.301 93.624 0 23.597-6.832 46.866-20.582 46.866-47.631v-35.724h-93.624V350.81H396.254c27.241 0 37.392-19.002 46.867-47.522 9.786-29.362 9.369-57.598 0-95.264-6.733-27.119-19.591-47.522-46.867-47.522h-35.177zm-52.658 226.032c9.717 0 17.588 7.962 17.588 17.807 0 9.88-7.872 17.917-17.588 17.917-9.682 0-17.588-8.037-17.588-17.917 0-9.846 7.907-17.807 17.588-17.807" fill="#ffffff" opacity="1" data-original="#ffffff" class=""/>
    </g>
  </g>
</svg>
